HIERARCHY
ROOT root
{
	OFFSET 0.000000 0.000000 0.000000
	CHANNELS 6 Xposition Yposition Zposition Zrotation Yrotation Xrotation
	JOINT lhip
	{
		OFFSET 0.058581 -0.082280 -0.017664
		CHANNELS 3 Zrotation Yrotation Xrotation
		JOINT lknee
		{
			OFFSET 0.043451 -0.386469 0.008037
			CHANNELS 3 Zrotation Yrotation Xrotation
			JOINT lankle
			{
				OFFSET -0.014790 -0.426874 -0.037428
				CHANNELS 3 Zrotation Yrotation Xrotation
				JOINT ltoe
				{
					OFFSET 0.041054 -0.060286 0.122042
					CHANNELS 3 Zrotation Yrotation Xrotation
					End Site
					{
						OFFSET 0.000000 0.000000 0.000000
					}
				}
			}
		}
	}
	JOINT rhip
	{
		OFFSET -0.060310 -0.090513 -0.013543
		CHANNELS 3 Zrotation Yrotation Xrotation
		JOINT rknee
		{
			OFFSET -0.043257 -0.383688 -0.004843
			CHANNELS 3 Zrotation Yrotation Xrotation
			JOINT rankle
			{
				OFFSET 0.019056 -0.420046 -0.034562
				CHANNELS 3 Zrotation Yrotation Xrotation
				JOINT rtoe
				{
					OFFSET -0.034840 -0.062106 0.130323
					CHANNELS 3 Zrotation Yrotation Xrotation
					End Site
					{
						OFFSET 0.000000 0.000000 0.000000
					}
				}
			}
		}
	}
	JOINT lowerback
	{
		OFFSET 0.004439 0.124404 -0.038385
		CHANNELS 3 Zrotation Yrotation Xrotation
		JOINT upperback
		{
			OFFSET 0.004488 0.137956 0.026820
			CHANNELS 3 Zrotation Yrotation Xrotation
			JOINT chest
			{
				OFFSET -0.002265 0.056032 0.002855
				CHANNELS 3 Zrotation Yrotation Xrotation
				JOINT lowerneck
				{
					OFFSET -0.013390 0.211636 -0.033468
					CHANNELS 3 Zrotation Yrotation Xrotation
					JOINT upperneck
					{
						OFFSET 0.010113 0.088937 0.050410
						CHANNELS 3 Zrotation Yrotation Xrotation
						End Site
						{
							OFFSET 0.000000 0.000000 0.000000
						}
					}
				}
				JOINT lclavicle
				{
					OFFSET 0.071702 0.114000 -0.018898
					CHANNELS 3 Zrotation Yrotation Xrotation
					JOINT lshoulder
					{
						OFFSET 0.122921 0.045205 -0.019046
						CHANNELS 3 Zrotation Yrotation Xrotation
						JOINT lelbow
						{
							OFFSET 0.255332 -0.015649 -0.022946
							CHANNELS 3 Zrotation Yrotation Xrotation
							JOINT lwrist
							{
								OFFSET 0.265709 0.012698 -0.007375
								CHANNELS 3 Zrotation Yrotation Xrotation
								End Site
								{
									OFFSET 0.000000 0.000000 0.000000
								}
							}
						}
					}
				}
				JOINT rclavicle
				{
					OFFSET -0.082954 0.112472 -0.023707
					CHANNELS 3 Zrotation Yrotation Xrotation
					JOINT rshoulder
					{
						OFFSET -0.113228 0.046853 -0.008472
						CHANNELS 3 Zrotation Yrotation Xrotation
						JOINT relbow
						{
							OFFSET -0.260127 -0.014369 -0.031269
							CHANNELS 3 Zrotation Yrotation Xrotation
							JOINT rwrist
							{
								OFFSET -0.269108 0.006794 -0.006027
								CHANNELS 3 Zrotation Yrotation Xrotation
								End Site
								{
									OFFSET 0.000000 0.000000 0.000000
								}
							}
						}
					}
				}
			}
		}
	}
}
MOTION
Frames: 17
Frame Time: 0.033333
0.241632 0.200775 0.988084 60.675087 -24.826073 56.865066 38.825522 37.715808 -65.044812 1.869456 21.260136 14.674695 -12.649193 0.780903 34.107902 0.000000 -0.000000 0.000000 -19.786523 0.431705 18.138066 -3.368086 9.067502 30.202305 -4.576995 14.585595 -28.169652 0.000000 -0.000000 0.000000 -2.010501 6.548926 8.895984 -12.888727 -10.479991 15.774711 -6.992823 0.441006 -6.857779 -5.506155 34.404255 33.678974 -10.426181 14.680188 1.073114 -25.785568 -10.915051 -0.983499 -38.717514 -5.266713 2.057006 147.906224 -39.451375 -115.450722 42.856375 -26.283413 -21.166715 13.924359 21.547811 11.319478 47.306356 41.397503 12.321921 -157.098321 67.984008 -137.416729 -29.071602 22.190727 -36.907586 
0.244094 0.198263 0.988252 59.925889 -25.161001 56.410810 39.139638 39.988119 -66.230621 1.472941 22.013134 28.293948 -11.860730 0.509779 33.769387 0.000000 -0.000000 0.000000 -20.639055 0.037362 18.664222 -2.836779 9.199460 30.268630 -5.510869 14.729499 -28.193927 0.000000 -0.000000 0.000000 -2.343941 6.428887 9.656591 -12.576254 -10.980189 15.193988 -6.875875 0.085270 -6.567282 -5.046064 34.467548 33.426689 -11.319792 14.915136 1.053575 -25.604164 -11.232453 -0.219900 -38.904688 -5.633686 1.357300 148.340547 -39.446604 -114.924890 43.581193 -25.624327 -22.112212 13.666895 21.571567 11.013127 46.086942 41.732149 10.742984 -158.114023 68.488867 -137.127795 -29.541777 21.819681 -35.334968 
0.244010 0.197310 0.990242 59.606048 -25.647570 56.129663 38.570866 41.237549 -68.289782 1.209643 22.081832 46.134163 -11.544959 0.032121 33.571328 0.000000 -0.000000 0.000000 -21.103121 -0.051828 19.299427 -2.980550 9.419493 29.386114 -6.925210 14.239905 -28.322983 0.000000 -0.000000 0.000000 -2.612668 6.647936 10.741867 -12.483986 -11.148066 15.098344 -6.863690 -0.006519 -6.783220 -5.103196 34.042836 33.373659 -11.845030 14.588602 0.341817 -26.009115 -11.620485 0.910416 -37.923423 -5.817747 0.921547 148.492577 -39.895669 -114.905170 43.708533 -25.165477 -22.983024 13.937212 22.037308 11.261679 44.933325 41.746804 8.980520 -158.955012 68.081347 -137.684472 -29.861372 21.149100 -35.367094 
0.242046 0.198761 0.991998 60.127774 -25.579130 57.144971 36.729560 40.437681 -71.673790 1.274918 22.381725 63.872707 -11.290327 -0.617205 33.468427 0.000000 -0.000000 0.000000 -20.492610 0.383407 18.372186 -3.010304 9.154263 29.017492 -8.119339 12.916963 -28.329483 0.000000 -0.000000 0.000000 -2.703774 6.614277 11.062119 -12.369558 -11.400916 14.618895 -6.784705 -0.065140 -6.941174 -6.382171 33.254171 32.828925 -11.856686 14.760875 -0.472174 -26.863734 -11.641181 1.554530 -36.633373 -5.726650 0.588487 148.494695 -40.226405 -115.056451 43.505630 -25.269663 -22.794334 14.170404 22.354615 11.282483 43.745271 41.563375 7.929427 -160.131037 67.302163 -140.149546 -30.390021 20.883470 -36.954494 
0.237066 0.201976 0.993421 61.759725 -25.097121 58.134420 32.988299 37.210424 -74.850228 1.625517 23.058228 79.505886 -9.936056 -0.814749 32.323338 0.000000 -0.000000 0.000000 -19.757337 0.291348 17.129522 -2.987375 8.562351 28.861382 -9.196106 11.184812 -27.976997 0.000000 -0.000000 0.000000 -2.921874 6.727769 11.957297 -12.199494 -11.732430 14.462568 -6.519555 -0.329452 -7.113883 -8.463592 31.650915 31.188379 -11.617449 15.246507 -1.604984 -27.366182 -12.198062 2.232708 -35.586505 -6.180985 0.364459 148.277683 -40.122513 -114.971991 44.138475 -24.758851 -22.779155 14.324931 22.692890 10.766684 42.478386 41.297826 6.976342 -160.173636 66.196502 -140.934272 -31.066803 20.598345 -37.208639 
0.230173 0.206260 0.993778 63.129113 -24.089799 59.493756 29.514093 33.310722 -76.621754 2.119376 24.112573 93.241705 -8.958761 -0.989020 31.287042 0.000000 -0.000000 0.000000 -18.708260 -0.160679 15.661717 -2.889316 7.781329 28.209342 -10.328107 9.783069 -27.348937 0.000000 -0.000000 0.000000 -2.423179 6.842407 13.369247 -11.946679 -11.692778 13.819969 -6.387721 -0.281889 -6.770573 -10.256213 29.473358 29.008026 -11.302073 15.243319 -2.600043 -27.398719 -13.107249 2.671168 -34.782980 -7.486585 0.259419 148.009410 -39.966755 -114.620794 44.634874 -24.258322 -22.735397 14.009362 23.128876 9.913802 40.785599 40.965444 5.384873 -159.635747 64.777538 -140.626447 -31.389253 20.521465 -36.188505 
0.222250 0.210955 0.994261 64.175604 -22.932941 61.481069 26.624380 29.418419 -76.949904 2.976806 25.483659 105.206506 -8.196947 -1.575815 29.859084 0.000000 -0.000000 0.000000 -17.517986 -0.358268 13.342741 -2.384798 6.847709 27.817773 -11.044727 8.580777 -26.333701 0.000000 -0.000000 0.000000 -1.798427 6.773120 14.577954 -11.622132 -11.345429 13.002739 -6.332757 -0.152353 -6.462408 -11.375247 27.431168 26.858809 -11.050892 14.991642 -3.475191 -27.002774 -13.663401 2.570184 -34.208016 -8.675911 0.412132 147.941919 -39.890432 -114.454838 43.963292 -24.610672 -22.430698 13.332508 23.540482 8.959201 39.084502 40.920927 4.128536 -158.277055 63.493723 -139.777622 -31.307652 20.739025 -35.383242 
0.213536 0.215274 0.995558 65.401513 -21.639724 63.790442 23.886735 25.244846 -76.283222 3.552236 26.674542 114.889988 -7.860305 -2.473015 29.163782 0.000000 -0.000000 0.000000 -16.317040 -0.507317 10.612114 -1.691979 5.517364 27.433226 -11.547756 7.645242 -25.033002 0.000000 -0.000000 0.000000 -1.333991 6.585613 15.437513 -11.244517 -11.008876 12.149661 -6.159398 -0.192410 -6.260757 -12.350755 25.541274 25.037035 -10.666056 14.991004 -4.527453 -26.400459 -14.198561 2.641952 -33.712052 -9.253075 0.518588 147.721072 -39.814023 -114.272080 42.966023 -25.043512 -22.550045 12.507743 24.023046 8.042087 37.765775 41.058690 3.169303 -156.663924 62.695789 -138.816129 -30.982120 21.083292 -34.729535 
0.204900 0.218921 0.996212 66.553505 -19.744939 66.622822 21.728190 21.267521 -75.329667 3.177218 27.296530 121.707753 -8.698828 -3.673754 30.006295 0.000000 -0.000000 0.000000 -14.463128 -0.860966 7.623388 -1.106293 4.012918 26.573575 -12.131837 6.786433 -23.568749 0.000000 -0.000000 0.000000 -0.426940 6.164444 15.695790 -10.730579 -10.671720 10.342457 -5.916702 -0.079041 -5.275164 -13.334527 23.682843 23.434391 -10.156102 14.894944 -5.218490 -25.532034 -14.656330 2.592222 -33.775152 -9.618789 0.645749 147.363339 -40.060457 -113.955285 42.136992 -25.052142 -22.648423 11.432464 24.427387 7.030644 36.899589 41.061630 2.156784 -155.806808 62.253704 -138.898320 -30.427291 21.224731 -34.421244 
0.195782 0.221858 0.996332 67.870599 -17.698854 69.998212 19.882764 17.284097 -73.720661 2.002647 27.687609 125.237612 -9.047608 -4.711879 29.790650 0.000000 -0.000000 0.000000 -12.446157 -1.101885 4.038572 -0.460744 2.508376 25.611390 -12.375209 5.768983 -21.816667 0.000000 -0.000000 0.000000 0.279476 5.664425 15.072168 -10.072673 -10.224223 8.300602 -5.571700 0.074456 -4.006730 -14.149773 21.868576 21.783889 -9.535374 14.722637 -5.500993 -24.478486 -14.902631 2.275922 -33.980138 -10.159671 0.895970 147.386204 -40.417931 -114.102403 41.365913 -25.234257 -21.774632 10.459537 24.601249 6.003949 36.310485 40.974406 1.299773 -155.312858 62.078700 -139.036817 -29.891765 21.491909 -33.581143 
0.185943 0.224417 0.996720 69.813890 -15.925186 73.655196 17.739791 12.666648 -71.480132 0.480241 27.688106 125.121050 -9.286749 -5.338202 29.790033 0.000000 -0.000000 0.000000 -10.883867 -1.107598 -0.007089 0.137734 0.578950 24.670490 -12.308511 4.744614 -19.921715 0.000000 -0.000000 0.000000 0.529724 5.131102 13.753136 -9.404717 -9.861054 6.989049 -5.148486 0.012235 -3.443496 -15.035729 20.071470 20.291135 -8.615154 14.621966 -5.937476 -23.302136 -15.158242 1.840952 -34.189644 -10.811411 1.253127 147.295863 -40.589481 -114.201654 40.129614 -25.681585 -21.132424 9.582239 24.616322 5.046574 36.161616 40.781288 1.094489 -154.448151 61.825449 -138.543190 -29.240303 22.173191 -32.293191 
0.176179 0.226845 0.996495 72.098612 -14.264207 77.437236 15.577637 7.786271 -68.643210 -1.184587 27.021819 122.090820 -9.519818 -5.317387 29.884870 0.000000 -0.000000 0.000000 -9.539427 -0.923499 -4.198618 0.579456 -1.607356 23.586041 -12.132163 3.602701 -17.999372 0.000000 -0.000000 0.000000 0.850076 4.503431 12.081086 -8.729308 -9.515238 6.034992 -4.725270 -0.137508 -3.313012 -16.109898 18.225755 18.895983 -7.555046 14.629250 -6.386681 -22.113515 -15.476266 1.389279 -34.509052 -11.587036 1.716847 147.211586 -40.606049 -114.420160 39.023637 -26.060458 -20.740099 8.498513 24.482341 4.006219 36.387453 40.442258 1.338269 -153.675599 61.311096 -138.453023 -28.556496 22.714789 -31.672511 
0.167005 0.229634 0.995064 74.445298 -12.942161 80.929182 13.397673 2.921035 -64.415068 -2.286692 25.746266 117.344887 -8.804379 -4.268856 28.885651 0.000000 -0.000000 0.000000 -8.633119 -0.675344 -8.283581 0.928441 -3.371242 22.832337 -11.797783 2.252905 -16.389187 0.000000 -0.000000 0.000000 1.182325 3.851444 10.562616 -8.098181 -9.024225 5.130035 -4.371663 -0.286402 -3.163914 -17.185966 16.342290 17.304028 -6.539127 14.657757 -6.670829 -20.820349 -15.858447 0.761661 -34.952161 -12.637919 2.232219 146.989974 -40.712852 -114.526199 38.268762 -26.270843 -20.769857 7.329607 24.194504 2.787056 36.649692 40.086885 1.678046 -152.893694 60.696706 -138.311228 -27.995365 23.130538 -31.096474 
0.158989 0.232959 0.992425 76.685671 -11.902091 83.798198 10.964059 -1.658443 -58.274459 -3.059712 23.742797 111.444653 -7.866170 -2.278300 28.217948 0.000000 -0.000000 0.000000 -8.116854 -0.568594 -12.096126 1.224767 -4.771176 22.910321 -11.510061 0.910024 -15.236900 0.000000 -0.000000 0.000000 1.681510 3.129107 9.474844 -7.582290 -8.329030 4.361748 -4.146016 -0.394336 -3.075893 -18.117075 14.545352 15.653887 -5.694767 14.491656 -6.719934 -19.405600 -16.294204 0.036598 -35.551581 -13.854147 2.674824 146.556609 -40.960148 -114.221225 37.353679 -26.516505 -21.062094 6.168458 23.931210 1.627052 36.777205 39.808262 1.834959 -151.931031 60.121287 -137.703371 -27.145475 23.774357 -29.957335 
0.152334 0.236602 0.988456 78.516054 -10.791444 86.247989 8.488719 -5.156769 -50.398762 -4.071744 20.772053 104.631710 -7.036455 -0.121195 27.369371 0.000000 -0.000000 0.000000 -7.662788 -0.438366 -15.416152 1.583080 -6.098362 23.154003 -11.289268 -0.068264 -14.586417 0.000000 -0.000000 0.000000 2.520769 2.230240 8.538180 -7.070165 -7.419998 3.812966 -4.029674 -0.419855 -3.219492 -18.671615 13.055733 14.102532 -5.279631 14.115144 -6.500213 -18.030344 -16.397172 -0.802079 -36.290255 -15.105688 3.086163 146.238879 -41.221294 -113.939849 36.057581 -26.957872 -21.366544 5.097281 23.773963 0.642307 36.727752 39.805108 1.933763 -150.798076 59.657047 -136.932940 -25.985667 24.468419 -29.040298 
0.146613 0.240516 0.983348 79.962775 -9.651753 88.351081 6.350889 -7.155255 -41.193374 -5.001153 17.071247 96.760727 -6.412689 1.927146 26.102149 0.000000 -0.000000 0.000000 -7.305763 -0.278680 -18.490245 2.027059 -7.321870 23.843387 -10.922052 -0.722721 -14.392804 0.000000 -0.000000 0.000000 3.343668 1.150031 7.601145 -6.492201 -6.380718 3.452941 -3.913612 -0.418498 -3.334887 -18.766219 12.053379 12.506967 -5.181127 13.647681 -6.254033 -16.797846 -16.256397 -1.632294 -36.991368 -16.171473 3.426303 146.345264 -41.397825 -114.180910 35.228098 -27.314951 -21.686976 4.356253 23.781891 -0.129752 36.361707 40.109688 1.846449 -149.639716 59.386640 -136.014553 -25.192844 25.084762 -28.028476 
0.140901 0.244529 0.977490 81.385330 -8.531801 90.160003 5.062372 -7.859044 -31.501103 -5.260518 13.181517 87.661551 -5.723456 4.234476 24.853012 0.000000 -0.000000 0.000000 -7.143611 -0.157916 -21.503608 2.501163 -8.625235 25.169506 -10.368922 -1.072433 -14.547230 0.000000 -0.000000 0.000000 3.909219 -0.125667 6.720306 -5.802814 -5.443739 3.193978 -3.692093 -0.496905 -3.399894 -18.486328 11.598948 10.885231 -5.140735 13.058439 -6.214928 -15.390663 -15.990919 -2.277380 -37.870509 -17.035480 3.600914 146.686930 -41.380389 -114.605065 34.639235 -27.381215 -21.822402 3.744526 23.834446 -0.739957 36.172821 40.579958 1.765080 -148.579963 59.220972 -134.989730 -24.526031 25.448699 -27.386817 
